<svg xmlns="http://www.w3.org/2000/svg" viewBox="0 0 100 100" fill="none">
  <!-- Bright Green Outer Arc (C Shape) -->
  <path d="M72,20 C62,11 48,8 35,13 C18,20 8,38 10,56 C12,74 27,89 45,91 C58,93 72,87 78,76 C64,83 48,82 38,72 C25,59 25,38 38,25 C47,16 61,14 72,20 Z" fill="url(#outerGrad)" />
  <!-- Darker Green Inner Crescent -->
  <path d="M50,22 C34,22 22,34 22,50 C22,66 34,78 50,78 C38,74 32,64 32,50 C32,36 38,26 50,22 Z" fill="url(#innerGrad)" />
  
  <defs>
    <linearGradient id="outerGrad" x1="0%" y1="0%" x2="100%" y2="100%">
      <stop offset="0%" stop-color="#10B981" />
      <stop offset="100%" stop-color="#059669" />
    </linearGradient>
    <linearGradient id="innerGrad" x1="0%" y1="0%" x2="100%" y2="100%">
      <stop offset="0%" stop-color="#047857" />
      <stop offset="100%" stop-color="#064e3b" />
    </linearGradient>
  </defs>
</svg>